<?xml version="1.0" encoding="iso-8859-1"?>
<!-- Generator: Adobe Illustrator 19.0.0, SVG Export Plug-In . SVG Version: 6.00 Build 0)  -->
<svg version="1.1" id="Layer_1" xmlns="http://www.w3.org/2000/svg" xmlns:xlink="http://www.w3.org/1999/xlink" x="0px" y="0px"
	 viewBox="0 0 511.996 511.996" style="enable-background:new 0 0 511.996 511.996;" xml:space="preserve">
<g>
	<g>
		<path d="M170.665,426.652h-21.329c-5.892,0-10.671,4.775-10.671,10.688c0,5.871,4.779,10.656,10.671,10.656h21.329
			c5.887,0,10.671-4.785,10.671-10.656C181.337,431.428,176.553,426.652,170.665,426.652z"/>
	</g>
</g>
<g>
	<g>
		<path d="M234.66,426.652h-21.329c-5.887,0-10.671,4.775-10.671,10.688c0,5.871,4.785,10.656,10.671,10.656h21.329
			c5.892,0,10.671-4.785,10.671-10.656C245.331,431.428,240.553,426.652,234.66,426.652z"/>
	</g>
</g>
<g>
	<g>
		<path d="M138.665,309.34v-21.344h-64v21.344H53.337v64h21.328v21.312h64.001V373.34h21.333v-64H138.665z M138.665,351.996h-21.329
			v21.344H95.998v-21.344H74.665v-21.344h21.334V309.34h21.338v21.312h21.329V351.996z"/>
	</g>
</g>
<g>
	<g>
		<path d="M234.66,319.996c-17.672,0-32,14.324-32,32c0,17.666,14.329,32,32,32c17.671,0,32.005-14.334,32.005-32
			C266.665,334.32,252.331,319.996,234.66,319.996z M234.66,362.652c-5.883,0-10.662-4.783-10.662-10.656
			c0-5.873,4.779-10.658,10.662-10.658c5.882,0,10.671,4.785,10.671,10.658S240.542,362.652,234.66,362.652z"/>
	</g>
</g>
<g>
	<g>
		<path d="M490.646,265.441h-21.304c0-5.893-4.784-10.666-10.696-10.666h-85.304V10.662C373.342,4.774,368.558,0,362.655,0H21.337
			c-5.888,0-10.672,4.774-10.672,10.662v437.334c0,1.117,0.182,2.264,0.539,3.344c0.579,1.744,6.446,17.666,32.794,32.588
			c32.853,18.627,82.647,28.068,148,28.068c47.515,0,86.794-5,117.344-14.883v4.227c0,5.871,4.765,10.656,10.656,10.656h170.647
			c5.912,0,10.687-4.785,10.687-10.656V276.103C501.333,270.211,496.559,265.441,490.646,265.441z M320,42.662H63.998
			c-5.887,0-10.662,4.784-10.662,10.671v192.001c0,5.888,4.774,10.662,10.662,10.662h251.05c-3.393,1.779-5.706,5.342-5.706,9.445
			v13.711c-3.344-1.176-6.941-1.814-10.687-1.814c-17.657,0-31.99,14.314-31.99,32.002c0,17.656,14.333,31.998,31.99,31.998
			c3.745,0,7.343-0.656,10.687-1.842v135.029c-35.942,13.118-82.368,16.118-117.344,16.118c-40.893,0-97.422-4.088-134.545-23.646
			c-17.25-9.098-23.607-18.156-25.451-21.383V21.333H352v233.442h-27.069c3.412-1.789,5.726-5.344,5.726-9.441V53.333
			C330.657,47.446,325.892,42.662,320,42.662z M309.342,64v170.662H74.665V64H309.342z M309.342,309.34
			c0,5.871-4.794,10.656-10.687,10.656c-5.873,0-10.657-4.785-10.657-10.656c0-5.893,4.784-10.688,10.657-10.688
			C304.548,298.652,309.342,303.447,309.342,309.34z M479.99,490.643H330.656V469.34H479.99V490.643z M479.99,447.996H330.656
			v-85.344H479.99V447.996z M479.99,341.338H330.656v-65.234H448c0,5.892,4.774,10.675,10.646,10.675h21.344V341.338z"/>
	</g>
</g>
<g>
</g>
<g>
</g>
<g>
</g>
<g>
</g>
<g>
</g>
<g>
</g>
<g>
</g>
<g>
</g>
<g>
</g>
<g>
</g>
<g>
</g>
<g>
</g>
<g>
</g>
<g>
</g>
<g>
</g>
</svg>
